<?xml version="1.0" standalone="no"?>
<!DOCTYPE svg PUBLIC "-//W3C//DTD SVG 20010904//EN"
 "http://www.w3.org/TR/2001/REC-SVG-20010904/DTD/svg10.dtd">
<svg version="1.0" xmlns="http://www.w3.org/2000/svg"
 width="400.000000pt" height="400.000000pt" viewBox="0 0 400.000000 400.000000"
 preserveAspectRatio="xMidYMid meet">

<g transform="translate(0.000000,400.000000) scale(0.100000,-0.100000)"
fill="#000000" stroke="none">
<path d="M0 2000 l0 -2000 2000 0 2000 0 0 2000 0 2000 -2000 0 -2000 0 0
-2000z m380 90 l0 -340 -75 0 -75 0 0 340 0 340 75 0 75 0 0 -340z m224 334
c12 -5 16 -21 16 -65 l0 -59 -70 0 -70 0 0 65 0 65 54 0 c30 0 61 -3 70 -6z
m256 -109 l0 -114 36 24 c71 48 162 45 241 -8 142 -95 142 -339 0 -434 -79
-53 -170 -56 -241 -8 l-36 24 0 -24 c0 -24 -2 -25 -75 -25 l-75 0 0 340 0 340
75 0 75 0 0 -115z m798 -84 c44 -22 89 -71 108 -116 17 -41 28 -120 20 -150
l-6 -25 -175 0 -175 0 15 -24 c33 -49 139 -66 204 -32 l34 18 35 -36 c34 -33
35 -36 19 -54 -28 -30 -104 -63 -160 -69 -111 -11 -226 50 -268 142 -25 55
-25 176 0 230 57 124 225 179 349 116z m530 -47 l3 -71 -56 -5 c-40 -3 -62
-11 -81 -29 -44 -40 -54 -78 -54 -209 l0 -120 -75 0 -75 0 0 250 0 250 75 0
75 0 0 -57 c1 -57 1 -57 14 -28 26 57 85 96 141 92 l30 -2 3 -71z m1472 54
c43 -22 90 -76 90 -104 0 -7 -23 -18 -55 -25 -53 -12 -57 -11 -71 9 -30 43
-105 18 -78 -26 5 -8 40 -26 78 -40 113 -42 159 -106 136 -191 -21 -78 -83
-116 -190 -116 -86 0 -130 19 -167 75 -37 53 -31 67 33 80 53 11 56 11 79 -14
13 -15 35 -26 49 -26 23 0 56 23 56 39 0 15 -36 38 -88 57 -107 37 -158 111
-134 192 29 96 161 141 262 90z m-3040 -238 l0 -250 -75 0 -75 0 0 250 0 250
75 0 75 0 0 -250z m1814 92 c32 -84 62 -149 66 -145 4 4 33 74 65 156 l58 147
73 0 c41 0 74 -4 74 -8 0 -5 -62 -157 -139 -338 l-138 -329 -72 -3 c-42 -2
-71 1 -71 7 0 5 16 44 35 87 19 42 35 83 35 90 0 8 -43 116 -96 242 -53 125
-98 233 -101 240 -4 10 12 12 73 10 l78 -3 60 -153z m556 -2 c0 -157 1 -161
25 -185 34 -35 93 -34 126 1 23 24 24 32 27 185 l3 159 75 0 74 0 0 -250 0
-250 -75 0 c-73 0 -75 1 -75 25 l0 25 -38 -25 c-98 -65 -227 -32 -273 69 -16
35 -19 68 -19 224 l0 182 75 0 75 0 0 -160z"/>
<path d="M894 2086 c-30 -30 -34 -40 -34 -86 0 -46 4 -56 34 -86 28 -28 41
-34 78 -34 91 0 142 69 118 160 -14 51 -57 80 -118 80 -37 0 -50 -6 -78 -34z"/>
<path d="M1478 2114 c-24 -13 -48 -42 -48 -58 0 -3 50 -6 110 -6 61 0 110 3
110 6 0 17 -24 46 -50 59 -36 19 -87 19 -122 -1z"/>
</g>
</svg>
